<svg width="95" height="40" fill="none" xmlns="http://www.w3.org/2000/svg"><path d="M0 9.563A6.562 6.562 0 016.563 3h21.875A6.562 6.562 0 0135 9.563v21.874A6.562 6.562 0 0128.437 38H6.563A6.562 6.562 0 010 31.437V9.563z" fill="#78BD20"/><path d="M28.353 12.375C28.878 9.5 28.07 7.5 24.761 7.5H14.469l-.968 5.042h8.758c.524 0 .686.292.605.917l-1.13 6h-5.449l.808-4.167L4.5 21.542h9.364l-.808 4.166 8.274-4.083-1.09 5.917c-.16.583-.443.875-1.09.875h-8.677L9.545 33.5h10.332c3.27 0 4.884-2 5.368-4.875l3.108-16.25z" fill="#000"/><path d="M95 20c0 11.041-8.959 20-20 20s-20-8.959-20-20S63.959 0 75 0s20 8.959 20 20z" fill="#fff"/><path d="M92.157 20c0 9.455-7.669 17.158-17.156 17.158-9.488 0-17.158-7.67-17.158-17.158 0-9.487 7.67-17.156 17.157-17.156 9.488 0 17.157 7.702 17.157 17.156z" fill="#ED1D24"/><path d="M85.347 26.976a1.256 1.256 0 11-1.256-1.257c.727 0 1.256.562 1.256 1.257zm-15.47.694c-1.323-1.39-.298-4.067-.067-6.315-.297.297-3.107 6.876-5.686 6.876h-.132c-2.347-.231-2.05-3.471-1.322-5.422h3.769c-1.157 3.207.43 1.885 1.52-.132 2.182-4.43 2.215-4.529 4.595-11.206h4.165c-1.223 3.801-2.28 7.206-2.776 11.14 0 .132.066.298.231.232.86-.133 5.52-10.645 5.95-11.372h4.166s-4.43 12.231-3.703 13.388c.364.661.86-.595 1.323-1.09l.66.66c-1.222 1.356-2.61 3.835-4.561 3.835-.165 0-.298-.033-.463-.033a1.69 1.69 0 01-.793-.43c-2.248-1.95 1.818-9.223 1.388-9.686-.132 0-.264.364-.496.86-1.223 2.545-4.066 9.29-6.413 9.29-.397-.034-.959-.166-1.355-.596z" fill="#fff"/></svg>