<svg width="20" height="19" fill="none" xmlns="http://www.w3.org/2000/svg"><path d="M17.479 15.655C19.046 14.089 20 12.03 20 9.779c0-2.344-1.033-4.476-2.715-6.063 0-.002-.003-.003-.004-.005-1.751-1.65-4.205-2.706-6.934-2.79L10.15.917a3.765 3.765 0 00-.302 0L9.654.92c-2.73.084-5.183 1.14-6.934 2.79l-.005.004v.001C1.033 5.303 0 7.436 0 9.78c0 2.252.954 4.31 2.521 5.876.002.003.002.006.005.008.006.008.015.012.022.019 1.76 1.745 4.286 2.868 7.106 2.954l.194.005c.051.001.101.003.152.003l.151-.003.194-.005c2.823-.086 5.352-1.212 7.113-2.96.004-.006.012-.008.016-.013.003-.002.003-.005.005-.008zm-16.78-5.57h4.138c.04 1.295.325 2.554.833 3.734-.98.315-1.918.736-2.797 1.263-1.292-1.363-2.096-3.1-2.175-4.998zM3.06 4.283c.858.495 1.772.891 2.725 1.187a10.201 10.201 0 00-.949 4.003H.698c.083-1.989.961-3.8 2.363-5.19zm16.24 5.19h-4.138a10.203 10.203 0 00-.949-4.003 13.416 13.416 0 002.725-1.187c1.402 1.39 2.28 3.201 2.363 5.19zM9.656 5.488a13.49 13.49 0 01-2.92-.392c.698-1.271 1.685-2.419 2.92-3.374v3.766zm0 .611v3.374H5.527a9.654 9.654 0 01.92-3.813c1.036.266 2.112.413 3.208.44zm.69 0a14.24 14.24 0 003.21-.44 9.652 9.652 0 01.918 3.814h-4.128V6.1zm0-.611V1.722c1.235.955 2.222 2.103 2.92 3.374a13.49 13.49 0 01-2.92.392zm3.59-.578a11.46 11.46 0 00-2.72-3.312c2.018.234 3.835 1.043 5.235 2.237-.795.447-1.638.806-2.516 1.075zm-7.87 0a12.7 12.7 0 01-2.514-1.075C4.95 2.64 6.767 1.832 8.786 1.598a11.457 11.457 0 00-2.72 3.312zm-.538 5.175h4.128v3.068a14.22 14.22 0 00-3.331.471 9.63 9.63 0 01-.797-3.54zm4.128 3.68v4.07c-1.322-1.022-2.358-2.264-3.063-3.642a13.446 13.446 0 013.063-.429zm.69 4.07v-4.07c1.048.025 2.075.17 3.063.427-.705 1.379-1.741 2.621-3.063 3.643zm0-4.682v-3.069h4.128a9.627 9.627 0 01-.797 3.54 14.2 14.2 0 00-3.331-.471zm4.818-3.069h4.139c-.079 1.899-.883 3.635-2.175 4.998a13.394 13.394 0 00-2.797-1.263c.509-1.18.794-2.439.833-3.735zM3.342 15.54a12.71 12.71 0 012.592-1.156 11.396 11.396 0 002.852 3.576c-2.121-.246-4.02-1.127-5.444-2.42zm7.872 2.42a11.389 11.389 0 002.852-3.576c.908.289 1.776.675 2.592 1.156-1.425 1.294-3.323 2.174-5.444 2.42z" fill="#fff"/></svg>