<svg xmlns="http://www.w3.org/2000/svg">
    <symbol id="adress"   viewBox="0 0 18 22">
        <g>
            <path d="M15.364 15.5563L9 22L2.636 15.5563C1.37734 14.2819 0.520187 12.6581 0.172928 10.8905C-0.17433 9.12277 0.00390685 7.29051 0.685099 5.62539C1.36629 3.96027 2.51984 2.53707 3.99988 1.53576C5.47992 0.534448 7.21998 0 9 0C10.78 0 12.5201 0.534448 14.0001 1.53576C15.4802 2.53707 16.6337 3.96027 17.3149 5.62539C17.9961 7.29051 18.1743 9.12277 17.8271 10.8905C17.4798 12.6581 16.6227 14.2819 15.364 15.5563ZM9 11.1377C9.53044 11.1377 10.0391 10.9243 10.4142 10.5445C10.7893 10.1648 11 9.64969 11 9.11262C11 8.57554 10.7893 8.06047 10.4142 7.6807C10.0391 7.30093 9.53044 7.08757 9 7.08757C8.46957 7.08757 7.96086 7.30093 7.58579 7.6807C7.21072 8.06047 7 8.57554 7 9.11262C7 9.64969 7.21072 10.1648 7.58579 10.5445C7.96086 10.9243 8.46957 11.1377 9 11.1377Z" fill="#011C40"/>
        </g>
    </symbol>
    <symbol id="phone" width="17" height="24" viewBox="0 0 17 24" fill="none">
        <g>
            <path d="M1.3961 6.62432C1.31155 5.42623 1.57729 4.24606 2.2809 3.29684C2.8909 2.43632 3.68511 1.96636 4.64239 1.69172C5.44868 1.4525 5.97715 1.74561 6.20968 2.64204C6.54186 3.98224 7.01598 5.3225 7.18811 6.73361C7.24247 7.35485 6.84084 8.23322 6.40598 8.6856C5.31583 9.75888 5.54232 10.5399 6.36976 12.1643C6.62644 12.6881 7.03412 13.5934 7.82834 14.7919C8.65577 15.9992 9.09364 16.6472 10.1566 16.0975C11.3374 15.5035 12.198 15.8855 13.0889 16.8444C13.6928 17.5369 14.3572 18.1318 14.9612 18.8243C15.8339 19.8542 15.7946 20.5641 15.1121 21.2915C13.8831 22.6309 11.8538 23.0736 10.3439 22.1766C9.51039 21.6881 8.67994 21.0487 8.0186 20.303C5.10447 16.9825 3.00266 13.1212 1.73735 8.76321C1.53502 8.02654 1.4414 7.28104 1.3961 6.62432Z" stroke="#D7D9DF" stroke-width="2" stroke-miterlimit="10"/>
        </g>
    </symbol>
    <symbol id="skype" viewBox="0 0 195.4227 196.7792" width="30" height="30">
        <g>
            <path d="M141.483 77.685c-15.665 5.793-27.832 14.24-36.163 25.105-8.394 10.943-12.65 23.628-12.65 37.702 0 14.766 4.056 27.327 12.056 37.337 7.876 9.861 18.646 17.74 32.004 23.423 13.065 5.556 29.492 10.472 48.826 14.613 14.218 2.977 25.713 5.823 34.182 8.463 8.121 2.532 14.81 6.222 19.878 10.963 4.843 4.535 7.195 10.315 7.195 17.672 0 9.31-4.509 16.912-13.788 23.246-9.498 6.485-22.124 9.774-37.525 9.774-11.201 0-20.306-1.621-27.06-4.819-6.714-3.175-11.972-7.239-15.625-12.076-3.801-5.03-7.402-11.414-10.704-18.975-2.955-6.945-6.634-12.322-10.923-15.956-4.488-3.794-10.01-5.717-16.411-5.717-7.799 0-14.339 2.434-19.442 7.233-5.156 4.845-7.771 10.763-7.771 17.59 0 10.923 4.014 22.249 11.928 33.664 7.835 11.302 18.156 20.459 30.675 27.22 17.51 9.289 39.944 13.995 66.701 13.995 22.294 0 41.883-3.442 58.222-10.233 16.497-6.86 29.23-16.523 37.85-28.721 8.649-12.242 13.035-26.23 13.035-41.576 0-12.826-2.548-23.864-7.575-32.808-5.014-8.909-12.08-16.372-21.004-22.184-8.742-5.688-19.465-10.585-31.87-14.556-12.253-3.916-26.109-7.542-41.187-10.778-11.912-2.753-20.602-4.882-25.779-6.319-5.053-1.396-10.099-3.352-14.996-5.813-4.721-2.362-8.455-5.201-11.103-8.435-2.501-3.052-3.717-6.601-3.717-10.845 0-6.921 3.777-12.763 11.549-17.858 8.062-5.288 18.924-7.968 32.279-7.968 14.379 0 24.844 2.417 31.104 7.179 6.45 4.902 12.074 11.862 16.72 20.688 4.014 6.913 7.632 11.718 11.118 14.8 3.748 3.319 9.146 5.003 16.047 5.003 7.595 0 14.032-2.69 19.134-7.996 5.071-5.271 7.645-11.32 7.645-17.978 0-6.917-1.962-14.068-5.828-21.252-3.826-7.114-9.922-13.964-18.114-20.364-8.135-6.355-18.487-11.519-30.768-15.344-12.21-3.796-26.838-5.72-43.478-5.72-20.814.003-39.205 2.903-54.667 8.621z" fill="#fff" stroke="#00aaf1"/>
        </g>
    </symbol>
    <symbol id="email" width="26" height="30" viewBox="0 0 26 20" fill="none">
        <g>
            <path d="M24.2273 0H1.77273C0.768182 0 0 0.764706 0 1.76471V18.2353C0 19.2353 0.768182 20 1.77273 20H24.2273C25.2318 20 26 19.2353 26 18.2353V1.76471C26 0.764706 25.2318 0 24.2273 0ZM24.2273 17L19.5591 12.3529C19.2045 12 18.6727 12 18.3182 12.3529C17.9636 12.7059 17.9636 13.2353 18.3182 13.5882L22.9864 18.2353H3.01362L7.68182 13.5882C8.03636 13.2353 8.03636 12.7059 7.68182 12.3529C7.32727 12 6.79547 12 6.44092 12.3529L1.77273 17V5.70585L12.4091 13.7059C12.5864 13.8236 12.7636 13.8823 12.9409 13.8823C13.1182 13.8823 13.2954 13.8236 13.4727 13.7059L24.2273 5.70585V17ZM24.2273 1.76471V3.4706L12.9409 11.8235L1.77273 3.4706V1.76471H24.2273Z" fill="#D7D9DF"/>
        </g>
    </symbol>
    <symbol id="marker" width="18" height="30" viewBox="0 0 18 22" fill="#ffffff">
        <g>
            <path d="M15.364 15.5563L9 22L2.636 15.5563C1.37734 14.2819 0.520187 12.6581 0.172928 10.8905C-0.17433 9.12277 0.00390685 7.29051 0.685099 5.62539C1.36629 3.96027 2.51984 2.53707 3.99988 1.53576C5.47992 0.534448 7.21998 0 9 0C10.78 0 12.5201 0.534448 14.0001 1.53576C15.4802 2.53707 16.6337 3.96027 17.3149 5.62539C17.9961 7.29051 18.1743 9.12277 17.8271 10.8905C17.4798 12.6581 16.6227 14.2819 15.364 15.5563ZM9 11.1377C9.53044 11.1377 10.0391 10.9243 10.4142 10.5445C10.7893 10.1648 11 9.64969 11 9.11262C11 8.57554 10.7893 8.06047 10.4142 7.6807C10.0391 7.30093 9.53044 7.08757 9 7.08757C8.46957 7.08757 7.96086 7.30093 7.58579 7.6807C7.21072 8.06047 7 8.57554 7 9.11262C7 9.64969 7.21072 10.1648 7.58579 10.5445C7.96086 10.9243 8.46957 11.1377 9 11.1377Z" fill="#ffffff"/>
        </g>
    </symbol>

    <symbol id= "arrowleft" viewBox="0 0 10 20" width="20" height="30">
       <g>
        <path fill="red" d="M6.660,8.922 L6.660,8.922 L2.350,13.408 L0.503,11.486 L4.813,7.000 L0.503,2.515 L2.350,0.592 L8.507,7.000 L6.660,8.922 Z"/>
       </g>
       </symbol>

       <symbol id= "arrowright" viewBox="0 0 10 20">
        <g>
            <path fill="red" d="M6.660,8.922 L6.660,8.922 L2.350,13.408 L0.503,11.486 L4.813,7.000 L0.503,2.515 L2.350,0.592 L8.507,7.000 L6.660,8.922 Z"/>
        </g>
        </symbol>
</svg>
